<?xml version="1.0" encoding="UTF-8"?>
<svg xmlns="http://www.w3.org/2000/svg" xmlns:xlink="http://www.w3.org/1999/xlink" width="155.277638pt" height="172.287638pt" viewBox="0 0 155.277638 172.287638" version="1.1">
<defs>
<clipPath id="clip2">
  <path d="M 0.695313 163 L 148.582031 163 L 148.582031 164.1875 L 0.695313 164.1875 Z M 0.695313 163 "/>
</clipPath>
<clipPath id="clip3">
  <path d="M 148 0.101563 L 148.582031 0.101563 L 148.582031 164.1875 L 148 164.1875 Z M 148 0.101563 "/>
</clipPath>
<clipPath id="clip4">
  <path d="M 0.695313 0.101563 L 1 0.101563 L 1 164.1875 L 0.695313 164.1875 Z M 0.695313 0.101563 "/>
</clipPath>
<clipPath id="clip5">
  <path d="M 0.695313 0.101563 L 148.582031 0.101563 L 148.582031 1 L 0.695313 1 Z M 0.695313 0.101563 "/>
</clipPath>
<clipPath id="clip1">
  <rect width="149" height="165"/>
</clipPath>
<g id="surface4" clip-path="url(#clip1)">
<g clip-path="url(#clip2)" clip-rule="nonzero">
<path style="fill:none;stroke-width:0.1;stroke-linecap:round;stroke-linejoin:round;stroke:rgb(0%,0%,0%);stroke-opacity:1;stroke-miterlimit:10;" d="M 99.695362 -140.3347 L 151.764535 -140.3347 " transform="matrix(2.834646,0,0,-2.834646,-281.761181,-233.756181)"/>
</g>
<g clip-path="url(#clip3)" clip-rule="nonzero">
<path style="fill:none;stroke-width:0.1;stroke-linecap:round;stroke-linejoin:round;stroke:rgb(0%,0%,0%);stroke-opacity:1;stroke-miterlimit:10;" d="M 151.764535 -140.3347 L 151.764535 -82.549424 " transform="matrix(2.834646,0,0,-2.834646,-281.761181,-233.756181)"/>
</g>
<g clip-path="url(#clip4)" clip-rule="nonzero">
<path style="fill:none;stroke-width:0.1;stroke-linecap:round;stroke-linejoin:round;stroke:rgb(0%,0%,0%);stroke-opacity:1;stroke-miterlimit:10;" d="M 99.695362 -82.549424 L 99.695362 -140.3347 " transform="matrix(2.834646,0,0,-2.834646,-281.761181,-233.756181)"/>
</g>
<g clip-path="url(#clip5)" clip-rule="nonzero">
<path style="fill:none;stroke-width:0.1;stroke-linecap:round;stroke-linejoin:round;stroke:rgb(0%,0%,0%);stroke-opacity:1;stroke-miterlimit:10;" d="M 151.764535 -82.549424 L 99.695362 -82.549424 " transform="matrix(2.834646,0,0,-2.834646,-281.761181,-233.756181)"/>
</g>
</g>
</defs>
<g id="surface1">
<use xlink:href="#surface4" transform="matrix(1,0,0,1,3,4)"/>
</g>
</svg>
